<svg width="181" height="30" viewBox="0 0 181 30" fill="none" xmlns="http://www.w3.org/2000/svg">
<path d="M31.3438 0C31.3438 0 29.214 9.83606 15.7724 14.2824C1.87862 18.8893 0.200922 29.1971 0.200922 29.1971C0 29.1971 0 29.1067 0 28.9762V23.9578C0 22.7735 0 21.5691 0 20.3847C0 19.8729 0 19.3811 0 18.8491C0 18.3172 0 17.7551 0.100461 17.2031C0.170783 16.5005 0.241106 15.7879 0.341567 15.0753C0.523751 13.7112 0.833177 12.3671 1.26581 11.0606C1.86139 9.35921 2.73 7.76597 3.83761 6.34326C4.22347 5.83752 4.65381 5.36727 5.1235 4.93811C5.62936 4.47377 6.1664 4.04453 6.73088 3.6534C7.50196 3.14044 8.31527 2.69387 9.16203 2.3185C9.77484 2.05754 10.3977 1.8267 11.0206 1.62596C11.8944 1.34585 12.7832 1.11465 13.6828 0.933422C14.3257 0.802944 14.9787 0.702576 15.6317 0.592171C16.0737 0.511877 16.4555 0.481766 16.8774 0.431582C17.2994 0.381398 17.9323 0.311141 18.4647 0.270994C18.9972 0.230846 19.2583 0.22081 19.6501 0.180662L21.79 0.0702576H22.3827C24.6732 0 26.9637 0.0702576 29.2542 0.0702576L31.3438 0Z" fill="url(#paint0_linear)"/>
<path d="M33.4434 1.00352C33.4434 2.21798 33.4434 3.44247 33.4434 4.65692V9.67532C33.4434 10.1772 33.4434 10.679 33.4434 11.2009C33.4434 11.7228 33.3832 12.305 33.343 12.847C33.2727 13.5596 33.2124 14.2722 33.1019 14.9748C32.9208 16.339 32.6113 17.6832 32.1776 18.9895C31.8224 20.0019 31.3681 20.9768 30.8214 21.9001C30.4696 22.5169 30.0734 23.1072 29.636 23.6666C29.2329 24.1765 28.7895 24.6531 28.3099 25.0918C27.8062 25.5587 27.269 25.9881 26.7025 26.3766C25.9348 26.8921 25.1209 27.3356 24.2714 27.7014C23.6686 27.9624 23.0457 28.1932 22.4229 28.404C21.5388 28.685 20.6548 28.9058 19.7607 29.0965C19.1177 29.217 18.4547 29.3274 17.8117 29.4277C17.3998 29.508 16.9779 29.5381 16.5761 29.5883L14.9787 29.759C14.597 29.759 14.2152 29.8091 13.8435 29.8393C13.1302 29.8894 12.4069 29.9296 11.7037 29.9597H11.1009C9.17209 30.0199 7.2332 30.0099 5.30435 29.9597H2.7426C2.52158 29.9597 2.31061 29.9597 2.0896 29.9597C2.47301 28.5991 3.04444 27.2985 3.78739 26.0955C5.9116 22.6456 8.92281 19.8278 12.5074 17.9356C14.1529 17.0358 15.8781 16.2899 17.661 15.7074C18.8763 15.3053 20.0671 14.8328 21.2274 14.2922C24.977 12.6117 28.2118 9.9652 30.6004 6.62413C31.6378 5.1417 32.444 3.51054 32.9914 1.78639C33.0911 1.45677 33.1716 1.12165 33.2325 0.782715C33.3631 0.782715 33.4133 0.782715 33.4334 0.89312C33.4417 0.9293 33.4451 0.966439 33.4434 1.00352Z" fill="url(#paint1_linear)"/>
<path d="M47.5783 2.36865L54.8918 2.42887C57.0962 2.31772 59.2724 2.9622 61.0601 4.25557C61.8213 4.89381 62.4203 5.7032 62.808 6.61738C63.1957 7.53156 63.361 8.52452 63.2903 9.51485V9.6353C63.3512 10.6197 63.1739 11.6042 62.7735 12.5056C62.373 13.4071 61.7612 14.199 60.9898 14.8143C59.2049 16.0376 57.0624 16.631 54.9019 16.5005H51.7273L51.6369 25.092H47.4075L47.5783 2.36865ZM54.8114 13.4091C57.6746 13.4091 59.1112 12.1545 59.1313 9.56504V9.48474C59.1313 6.98893 57.7114 5.72764 54.8717 5.70087H51.7876L51.7273 13.4493L54.8114 13.4091Z" fill="#212121"/>
<path d="M73.1054 25.6038C71.9956 25.6335 70.891 25.442 69.8561 25.0404C68.8212 24.6389 67.8767 24.0354 67.0778 23.2652C66.278 22.4503 65.6569 21.4779 65.2539 20.41C64.8509 19.3421 64.6749 18.2021 64.7371 17.0625V16.8116C64.6988 15.6748 64.8908 14.5421 65.3017 13.4813C65.7126 12.4206 66.3338 11.4538 67.128 10.6389C68.68 9.17244 70.7247 8.33873 72.8605 8.30159C74.9964 8.26445 77.0689 9.02655 78.671 10.4382C80.1578 11.8433 80.8878 13.9444 80.861 16.7413V17.8554L68.6751 17.7651C68.6343 19.0947 69.0728 20.3947 69.9108 21.4285C70.3357 21.8696 70.8511 22.2137 71.4216 22.4372C71.9921 22.6607 72.6042 22.7583 73.216 22.7232C75.4663 22.7232 76.7421 21.9002 77.0536 20.204H80.7706C80.6731 21.007 80.4059 21.7802 79.9868 22.4723C79.5677 23.1644 79.0062 23.7597 78.3395 24.2187C76.779 25.2073 74.9512 25.691 73.1054 25.6038ZM77.0636 15.2759C76.8761 12.5192 75.5366 11.1307 73.0452 11.1107C72.5218 11.0895 71.9996 11.1737 71.5095 11.3582C71.0194 11.5427 70.5714 11.8237 70.1921 12.1846C69.3836 12.9953 68.8767 14.0577 68.7555 15.1956L77.0636 15.2759Z" fill="#212121"/>
<path d="M84.2465 8.75222H88.0942L87.9937 22.5026H93.0168L93.1173 8.74219H96.9649L96.8644 22.5026H101.887L101.988 8.74219H105.836L105.715 25.3531L84.0557 25.1925L84.2465 8.75222Z" fill="#212121"/>
<path d="M117.248 25.935C116.138 25.9658 115.033 25.7748 113.998 25.3732C112.963 24.9717 112.019 24.3676 111.22 23.5964C110.432 22.7816 109.82 21.8126 109.424 20.7504C109.028 19.6881 108.857 18.5555 108.92 17.4238V17.1628C108.883 16.0373 109.072 14.9157 109.476 13.8642C109.879 12.8127 110.49 11.8526 111.271 11.0404C112.046 10.2605 112.975 9.64995 113.999 9.24739C115.022 8.84484 116.118 8.65906 117.218 8.70181C119.293 8.64582 121.305 9.41469 122.814 10.8396C124.3 12.2448 125.034 14.3525 125.014 17.1428V18.2568L112.828 18.1665C112.792 19.4953 113.23 20.7936 114.063 21.83C114.49 22.2719 115.007 22.6164 115.579 22.8399C116.151 23.0634 116.765 23.1605 117.379 23.1247C119.619 23.1247 120.905 22.3017 121.206 20.6155H124.933C124.831 21.4173 124.562 22.1888 124.144 22.8804C123.725 23.5719 123.166 24.168 122.502 24.6302C120.925 25.5911 119.092 26.0465 117.248 25.935ZM121.206 15.6071C121.012 12.8504 119.672 11.4619 117.188 11.4419C116.664 11.4207 116.142 11.5049 115.652 11.6894C115.162 11.8739 114.714 12.1549 114.335 12.5158C113.533 13.3315 113.028 14.3913 112.898 15.5268L121.206 15.6071Z" fill="#212121"/>
<path d="M138.927 18.7286L132.026 18.6784V25.7042H128.178L128.299 9.09326H132.146L132.096 15.7978L138.998 15.848L139.048 9.14344H142.896L142.775 25.7543H138.927V18.7286Z" fill="#212121"/>
<path d="M146.673 25.8446L146.793 9.22363H150.641L150.551 20.9767L157.824 9.27382H161.641L161.521 25.8948H157.703L157.724 14.1718L150.45 25.8647L146.673 25.8446Z" fill="#212121"/>
<path d="M173.024 26.3567C171.915 26.3882 170.81 26.1986 169.775 25.7988C168.74 25.3989 167.796 24.797 166.996 24.0281C166.211 23.2089 165.603 22.2375 165.209 21.174C164.815 20.1106 164.644 18.9777 164.706 17.8455V17.5845C164.67 16.448 164.863 15.3159 165.274 14.2555C165.684 13.1951 166.304 12.2281 167.097 11.4119C168.649 9.94539 170.693 9.11168 172.829 9.07454C174.965 9.0374 177.037 9.7995 178.64 11.2111C180.126 12.6163 180.86 14.724 180.83 17.5143V18.6283L168.644 18.538C168.608 19.8668 169.046 21.1651 169.879 22.2014C170.306 22.6434 170.823 22.9879 171.395 23.2114C171.967 23.4349 172.581 23.532 173.195 23.4962C175.435 23.4962 176.721 22.6732 177.022 20.987H180.749C180.649 21.7891 180.38 22.5611 179.961 23.2528C179.542 23.9445 178.983 24.5404 178.318 25.0017C176.738 25.9931 174.887 26.4668 173.024 26.3567ZM176.982 16.0589C176.791 13.3088 175.455 11.9137 172.964 11.8936C172.44 11.8744 171.917 11.9604 171.427 12.1466C170.937 12.3328 170.489 12.6154 170.11 12.9776C169.306 13.7911 168.8 14.852 168.674 15.9887L176.982 16.0589Z" fill="#212121"/>
<defs>
<linearGradient id="paint0_linear" x1="3.68732" y1="16.3399" x2="38.5799" y2="-2.7568" gradientUnits="userSpaceOnUse">
<stop offset="0.06" stop-color="#FDBE00"/>
<stop offset="1" stop-color="#F08500"/>
</linearGradient>
<linearGradient id="paint1_linear" x1="30.1986" y1="13.4291" x2="4.58947" y2="33.9273" gradientUnits="userSpaceOnUse">
<stop stop-color="#FDAB06"/>
<stop offset="1" stop-color="#F0EC00"/>
</linearGradient>
</defs>
</svg>
